%TF.GenerationSoftware,KiCad,Pcbnew,5.99.0+really5.1.10+dfsg1-1*%
%TF.CreationDate,2021-09-10T11:43:35-04:00*%
%TF.ProjectId,rsp32 lamp,72737033-3220-46c6-916d-702e6b696361,rev?*%
%TF.SameCoordinates,Original*%
%TF.FileFunction,Legend,Top*%
%TF.FilePolarity,Positive*%
%FSLAX46Y46*%
G04 Gerber Fmt 4.6, Leading zero omitted, Abs format (unit mm)*
G04 Created by KiCad (PCBNEW 5.99.0+really5.1.10+dfsg1-1) date 2021-09-10 11:43:35*
%MOMM*%
%LPD*%
G01*
G04 APERTURE LIST*
%ADD10C,0.120000*%
%ADD11C,0.150000*%
G04 APERTURE END LIST*
D10*
%TO.C,J2*%
X19110000Y-47050000D02*
X17780000Y-47050000D01*
X19110000Y-45720000D02*
X19110000Y-47050000D01*
X19110000Y-44450000D02*
X16450000Y-44450000D01*
X16450000Y-44450000D02*
X16450000Y-26610000D01*
X19110000Y-44450000D02*
X19110000Y-26610000D01*
X19110000Y-26610000D02*
X16450000Y-26610000D01*
%TO.C,J1*%
X33715000Y-50105000D02*
X33715000Y-51435000D01*
X32385000Y-50105000D02*
X33715000Y-50105000D01*
X31115000Y-50105000D02*
X31115000Y-52765000D01*
X31115000Y-52765000D02*
X23435000Y-52765000D01*
X31115000Y-50105000D02*
X23435000Y-50105000D01*
X23435000Y-50105000D02*
X23435000Y-52765000D01*
%TO.C,U1*%
X23265000Y-26750000D02*
X22885000Y-26750000D01*
X23265000Y-20330000D02*
X23265000Y-26750000D01*
X41505000Y-20330000D02*
X41505000Y-26750000D01*
X23265000Y-20330000D02*
X41505000Y-20330000D01*
X41505000Y-46075000D02*
X40505000Y-46075000D01*
X41505000Y-45295000D02*
X41505000Y-46075000D01*
X23265000Y-46075000D02*
X24265000Y-46075000D01*
X23265000Y-45295000D02*
X23265000Y-46075000D01*
%TO.C,J2*%
D11*
X17446666Y-47502380D02*
X17446666Y-48216666D01*
X17399047Y-48359523D01*
X17303809Y-48454761D01*
X17160952Y-48502380D01*
X17065714Y-48502380D01*
X17875238Y-47597619D02*
X17922857Y-47550000D01*
X18018095Y-47502380D01*
X18256190Y-47502380D01*
X18351428Y-47550000D01*
X18399047Y-47597619D01*
X18446666Y-47692857D01*
X18446666Y-47788095D01*
X18399047Y-47930952D01*
X17827619Y-48502380D01*
X18446666Y-48502380D01*
%TO.C,J1*%
X34167380Y-51768333D02*
X34881666Y-51768333D01*
X35024523Y-51815952D01*
X35119761Y-51911190D01*
X35167380Y-52054047D01*
X35167380Y-52149285D01*
X35167380Y-50768333D02*
X35167380Y-51339761D01*
X35167380Y-51054047D02*
X34167380Y-51054047D01*
X34310238Y-51149285D01*
X34405476Y-51244523D01*
X34453095Y-51339761D01*
%TO.C,U1*%
X21227380Y-45386904D02*
X22036904Y-45386904D01*
X22132142Y-45339285D01*
X22179761Y-45291666D01*
X22227380Y-45196428D01*
X22227380Y-45005952D01*
X22179761Y-44910714D01*
X22132142Y-44863095D01*
X22036904Y-44815476D01*
X21227380Y-44815476D01*
X22227380Y-43815476D02*
X22227380Y-44386904D01*
X22227380Y-44101190D02*
X21227380Y-44101190D01*
X21370238Y-44196428D01*
X21465476Y-44291666D01*
X21513095Y-44386904D01*
%TD*%
M02*
